<?xml version="1.0" encoding="UTF-8" standalone="no"?>
<!DOCTYPE svg PUBLIC "-//W3C//DTD SVG 1.1//EN"
 "http://www.w3.org/Graphics/SVG/1.1/DTD/svg11.dtd">
<!-- Generated by graphviz version 2.42.4 (0)
 -->
<!-- Title: AzureConcepts Pages: 1 -->
<svg width="1689pt" height="477pt"
 viewBox="0.00 0.00 1688.80 476.80" xmlns="http://www.w3.org/2000/svg" xmlns:xlink="http://www.w3.org/1999/xlink">
<g id="graph0" class="graph" transform="scale(1 1) rotate(0) translate(14.4 462.4)">
<title>AzureConcepts</title>
<polygon fill="white" stroke="transparent" points="-14.4,14.4 -14.4,-462.4 1674.4,-462.4 1674.4,14.4 -14.4,14.4"/>
<!-- tenant -->
<g id="node1" class="node">
<title>tenant</title>
<g id="a_node1"><a xlink:href="html/tenant.html" xlink:title="Tenant" target="_top">
<path fill="none" stroke="black" d="M317,-150C317,-150 278,-150 278,-150 272,-150 266,-144 266,-138 266,-138 266,-124 266,-124 266,-118 272,-112 278,-112 278,-112 317,-112 317,-112 323,-112 329,-118 329,-124 329,-124 329,-138 329,-138 329,-144 323,-150 317,-150"/>
<text text-anchor="middle" x="297.5" y="-128.2" font-family="Helvetica,sans-Serif" font-size="11.00">Tenant</text>
</a>
</g>
</g>
<!-- management&#45;group -->
<g id="node2" class="node">
<title>management&#45;group</title>
<g id="a_node2"><a xlink:href="html/management-group.html" xlink:title="Management Group" target="_top">
<path fill="none" stroke="black" d="M621,-146C621,-146 510,-146 510,-146 504,-146 498,-140 498,-134 498,-134 498,-120 498,-120 498,-114 504,-108 510,-108 510,-108 621,-108 621,-108 627,-108 633,-114 633,-120 633,-120 633,-134 633,-134 633,-140 627,-146 621,-146"/>
<text text-anchor="middle" x="565.5" y="-124.2" font-family="Helvetica,sans-Serif" font-size="11.00">Management Group</text>
</a>
</g>
</g>
<!-- tenant&#45;&gt;management&#45;group -->
<g id="edge1" class="edge">
<title>tenant&#45;&gt;management&#45;group</title>
<path fill="none" stroke="black" d="M329.01,-130.54C367.47,-129.96 434.95,-128.95 487.84,-128.15"/>
<polygon fill="black" stroke="black" points="487.92,-131.65 497.87,-128 487.82,-124.65 487.92,-131.65"/>
<text text-anchor="middle" x="421" y="-132" font-family="Helvetica,sans-Serif" font-size="10.00">identity context</text>
</g>
<!-- subscription -->
<g id="node3" class="node">
<title>subscription</title>
<g id="a_node3"><a xlink:href="html/subscription.html" xlink:title="Subscription" target="_top">
<path fill="none" stroke="black" d="M907,-235C907,-235 837,-235 837,-235 831,-235 825,-229 825,-223 825,-223 825,-209 825,-209 825,-203 831,-197 837,-197 837,-197 907,-197 907,-197 913,-197 919,-203 919,-209 919,-209 919,-223 919,-223 919,-229 913,-235 907,-235"/>
<text text-anchor="middle" x="872" y="-213.2" font-family="Helvetica,sans-Serif" font-size="11.00">Subscription</text>
</a>
</g>
</g>
<!-- management&#45;group&#45;&gt;subscription -->
<g id="edge2" class="edge">
<title>management&#45;group&#45;&gt;subscription</title>
<path fill="none" stroke="black" d="M633.21,-144.21C670.12,-153.97 716.74,-166.65 758,-179 776.78,-184.62 797.17,-191.16 815.39,-197.16"/>
<polygon fill="black" stroke="black" points="814.39,-200.52 824.99,-200.34 816.59,-193.88 814.39,-200.52"/>
<text text-anchor="middle" x="710" y="-182" font-family="Helvetica,sans-Serif" font-size="10.00">contains</text>
</g>
<!-- resource&#45;group -->
<g id="node4" class="node">
<title>resource&#45;group</title>
<g id="a_node4"><a xlink:href="html/resource-group.html" xlink:title="Resource Group" target="_top">
<path fill="none" stroke="black" d="M1159,-235C1159,-235 1069,-235 1069,-235 1063,-235 1057,-229 1057,-223 1057,-223 1057,-209 1057,-209 1057,-203 1063,-197 1069,-197 1069,-197 1159,-197 1159,-197 1165,-197 1171,-203 1171,-209 1171,-209 1171,-223 1171,-223 1171,-229 1165,-235 1159,-235"/>
<text text-anchor="middle" x="1114" y="-213.2" font-family="Helvetica,sans-Serif" font-size="11.00">Resource Group</text>
</a>
</g>
</g>
<!-- subscription&#45;&gt;resource&#45;group -->
<g id="edge3" class="edge">
<title>subscription&#45;&gt;resource&#45;group</title>
<path fill="none" stroke="black" d="M919.27,-216C955.44,-216 1006.19,-216 1046.67,-216"/>
<polygon fill="black" stroke="black" points="1046.73,-219.5 1056.73,-216 1046.73,-212.5 1046.73,-219.5"/>
<text text-anchor="middle" x="1007" y="-219" font-family="Helvetica,sans-Serif" font-size="10.00">contains</text>
</g>
<!-- vnet -->
<g id="node8" class="node">
<title>vnet</title>
<g id="a_node8"><a xlink:href="html/vnet.html" xlink:title="Virtual Network (VNet)" target="_top">
<path fill="none" stroke="black" d="M1426,-228C1426,-228 1298,-228 1298,-228 1292,-228 1286,-222 1286,-216 1286,-216 1286,-202 1286,-202 1286,-196 1292,-190 1298,-190 1298,-190 1426,-190 1426,-190 1432,-190 1438,-196 1438,-202 1438,-202 1438,-216 1438,-216 1438,-222 1432,-228 1426,-228"/>
<text text-anchor="middle" x="1362" y="-206.2" font-family="Helvetica,sans-Serif" font-size="11.00">Virtual Network (VNet)</text>
</a>
</g>
</g>
<!-- resource&#45;group&#45;&gt;vnet -->
<g id="edge10" class="edge">
<title>resource&#45;group&#45;&gt;vnet</title>
<path fill="none" stroke="black" d="M1171.13,-214.4C1202.1,-213.52 1241.21,-212.41 1275.87,-211.42"/>
<polygon fill="black" stroke="black" points="1276.09,-214.92 1285.99,-211.13 1275.9,-207.92 1276.09,-214.92"/>
<text text-anchor="middle" x="1228.5" y="-216" font-family="Helvetica,sans-Serif" font-size="10.00">contains</text>
</g>
<!-- key&#45;vault -->
<g id="node11" class="node">
<title>key&#45;vault</title>
<g id="a_node11"><a xlink:href="html/key-vault.html" xlink:title="Key Vault" target="_top">
<path fill="none" stroke="black" d="M1389,-302C1389,-302 1335,-302 1335,-302 1329,-302 1323,-296 1323,-290 1323,-290 1323,-276 1323,-276 1323,-270 1329,-264 1335,-264 1335,-264 1389,-264 1389,-264 1395,-264 1401,-270 1401,-276 1401,-276 1401,-290 1401,-290 1401,-296 1395,-302 1389,-302"/>
<text text-anchor="middle" x="1362" y="-280.2" font-family="Helvetica,sans-Serif" font-size="11.00">Key Vault</text>
</a>
</g>
</g>
<!-- resource&#45;group&#45;&gt;key&#45;vault -->
<g id="edge11" class="edge">
<title>resource&#45;group&#45;&gt;key&#45;vault</title>
<path fill="none" stroke="black" d="M1171.13,-231.29C1213.97,-242.95 1272.35,-258.86 1313.03,-269.93"/>
<polygon fill="black" stroke="black" points="1312.14,-273.32 1322.71,-272.57 1313.98,-266.57 1312.14,-273.32"/>
<text text-anchor="middle" x="1228.5" y="-256" font-family="Helvetica,sans-Serif" font-size="10.00">contains</text>
</g>
<!-- entra&#45;id -->
<g id="node5" class="node">
<title>entra&#45;id</title>
<g id="a_node5"><a xlink:href="html/entra-id.html" xlink:title="Microsoft Entra ID" target="_top">
<path fill="none" stroke="black" d="M114,-38C114,-38 12,-38 12,-38 6,-38 0,-32 0,-26 0,-26 0,-12 0,-12 0,-6 6,0 12,0 12,0 114,0 114,0 120,0 126,-6 126,-12 126,-12 126,-26 126,-26 126,-32 120,-38 114,-38"/>
<text text-anchor="middle" x="63" y="-16.2" font-family="Helvetica,sans-Serif" font-size="11.00">Microsoft Entra ID</text>
</a>
</g>
</g>
<!-- rbac -->
<g id="node6" class="node">
<title>rbac</title>
<g id="a_node6"><a xlink:href="html/rbac.html" xlink:title="Azure RBAC" target="_top">
<path fill="none" stroke="black" d="M331.5,-38C331.5,-38 263.5,-38 263.5,-38 257.5,-38 251.5,-32 251.5,-26 251.5,-26 251.5,-12 251.5,-12 251.5,-6 257.5,0 263.5,0 263.5,0 331.5,0 331.5,0 337.5,0 343.5,-6 343.5,-12 343.5,-12 343.5,-26 343.5,-26 343.5,-32 337.5,-38 331.5,-38"/>
<text text-anchor="middle" x="297.5" y="-16.2" font-family="Helvetica,sans-Serif" font-size="11.00">Azure RBAC</text>
</a>
</g>
</g>
<!-- entra&#45;id&#45;&gt;rbac -->
<g id="edge4" class="edge">
<title>entra&#45;id&#45;&gt;rbac</title>
<path fill="none" stroke="black" d="M126,-19C161.72,-19 206.25,-19 240.84,-19"/>
<polygon fill="black" stroke="black" points="241.24,-22.5 251.24,-19 241.24,-15.5 241.24,-22.5"/>
<text text-anchor="middle" x="188.5" y="-22" font-family="Helvetica,sans-Serif" font-size="10.00">authenticates</text>
</g>
<!-- rbac&#45;&gt;management&#45;group -->
<g id="edge5" class="edge">
<title>rbac&#45;&gt;management&#45;group</title>
<path fill="none" stroke="black" d="M343.62,-37.32C388.92,-55.71 458.85,-84.1 507.85,-104"/>
<polygon fill="black" stroke="black" points="506.78,-107.34 517.36,-107.86 509.41,-100.86 506.78,-107.34"/>
<text text-anchor="middle" x="421" y="-88" font-family="Helvetica,sans-Serif" font-size="10.00">authorizes at scope</text>
</g>
<!-- rbac&#45;&gt;subscription -->
<g id="edge6" class="edge">
<title>rbac&#45;&gt;subscription</title>
<path fill="none" stroke="black" d="M343.54,-23.98C378.01,-28.06 426.67,-34.38 469,-42 542.54,-55.23 562.75,-53.55 633,-79 691.68,-100.26 703.94,-111.8 758,-143 784.25,-158.15 812.93,-176.7 834.82,-191.31"/>
<polygon fill="black" stroke="black" points="832.91,-194.24 843.16,-196.9 836.8,-188.42 832.91,-194.24"/>
<text text-anchor="middle" x="565.5" y="-82" font-family="Helvetica,sans-Serif" font-size="10.00">authorizes at scope</text>
</g>
<!-- rbac&#45;&gt;resource&#45;group -->
<g id="edge7" class="edge">
<title>rbac&#45;&gt;resource&#45;group</title>
<path fill="none" stroke="black" d="M343.78,-17.1C378.16,-16.05 426.6,-15.42 469,-18 542.29,-22.45 560.84,-24.42 633,-38 798.43,-69.13 981.81,-151.63 1066.03,-192.45"/>
<polygon fill="black" stroke="black" points="1064.56,-195.62 1075.08,-196.86 1067.62,-189.33 1064.56,-195.62"/>
<text text-anchor="middle" x="710" y="-70" font-family="Helvetica,sans-Serif" font-size="10.00">authorizes at scope</text>
</g>
<!-- policy -->
<g id="node7" class="node">
<title>policy</title>
<g id="a_node7"><a xlink:href="html/policy.html" xlink:title="Azure Policy" target="_top">
<path fill="none" stroke="black" d="M332,-231C332,-231 263,-231 263,-231 257,-231 251,-225 251,-219 251,-219 251,-205 251,-205 251,-199 257,-193 263,-193 263,-193 332,-193 332,-193 338,-193 344,-199 344,-205 344,-205 344,-219 344,-219 344,-225 338,-231 332,-231"/>
<text text-anchor="middle" x="297.5" y="-209.2" font-family="Helvetica,sans-Serif" font-size="11.00">Azure Policy</text>
</a>
</g>
</g>
<!-- policy&#45;&gt;management&#45;group -->
<g id="edge8" class="edge">
<title>policy&#45;&gt;management&#45;group</title>
<path fill="none" stroke="black" d="M343.92,-192.84C353.46,-189.07 363.51,-185.26 373,-182 410.52,-169.09 452.87,-156.71 488.18,-146.97"/>
<polygon fill="black" stroke="black" points="489.23,-150.32 497.95,-144.3 487.38,-143.57 489.23,-150.32"/>
<text text-anchor="middle" x="421" y="-185" font-family="Helvetica,sans-Serif" font-size="10.00">governs</text>
</g>
<!-- policy&#45;&gt;subscription -->
<g id="edge9" class="edge">
<title>policy&#45;&gt;subscription</title>
<path fill="none" stroke="black" d="M344.38,-212.32C448.33,-213.05 701.53,-214.82 814.72,-215.61"/>
<polygon fill="black" stroke="black" points="814.87,-219.11 824.9,-215.68 814.92,-212.11 814.87,-219.11"/>
<text text-anchor="middle" x="565.5" y="-217" font-family="Helvetica,sans-Serif" font-size="10.00">governs</text>
</g>
<!-- vpn&#45;gateway -->
<g id="node9" class="node">
<title>vpn&#45;gateway</title>
<g id="a_node9"><a xlink:href="html/vpn-gateway.html" xlink:title="VPN Gateway" target="_top">
<path fill="none" stroke="black" d="M1648,-448C1648,-448 1570,-448 1570,-448 1564,-448 1558,-442 1558,-436 1558,-436 1558,-422 1558,-422 1558,-416 1564,-410 1570,-410 1570,-410 1648,-410 1648,-410 1654,-410 1660,-416 1660,-422 1660,-422 1660,-436 1660,-436 1660,-442 1654,-448 1648,-448"/>
<text text-anchor="middle" x="1609" y="-426.2" font-family="Helvetica,sans-Serif" font-size="11.00">VPN Gateway</text>
</a>
</g>
</g>
<!-- vnet&#45;&gt;vpn&#45;gateway -->
<g id="edge12" class="edge">
<title>vnet&#45;&gt;vpn&#45;gateway</title>
<path fill="none" stroke="black" d="M1414.4,-228.11C1423.04,-232.98 1431.35,-238.9 1438,-246 1461.02,-270.58 1446.78,-289.07 1467,-316 1494.46,-352.58 1536.37,-384.14 1567.37,-404.54"/>
<polygon fill="black" stroke="black" points="1565.51,-407.5 1575.8,-409.99 1569.31,-401.62 1565.51,-407.5"/>
<text text-anchor="middle" x="1498" y="-377" font-family="Helvetica,sans-Serif" font-size="10.00">connects via</text>
</g>
<!-- expressroute -->
<g id="node10" class="node">
<title>expressroute</title>
<g id="a_node10"><a xlink:href="html/expressroute.html" xlink:title="ExpressRoute" target="_top">
<path fill="none" stroke="black" d="M1648,-364C1648,-364 1570,-364 1570,-364 1564,-364 1558,-358 1558,-352 1558,-352 1558,-338 1558,-338 1558,-332 1564,-326 1570,-326 1570,-326 1648,-326 1648,-326 1654,-326 1660,-332 1660,-338 1660,-338 1660,-352 1660,-352 1660,-358 1654,-364 1648,-364"/>
<text text-anchor="middle" x="1609" y="-342.2" font-family="Helvetica,sans-Serif" font-size="11.00">ExpressRoute</text>
</a>
</g>
</g>
<!-- vnet&#45;&gt;expressroute -->
<g id="edge13" class="edge">
<title>vnet&#45;&gt;expressroute</title>
<path fill="none" stroke="black" d="M1402.96,-228.08C1414.36,-233.69 1426.74,-239.96 1438,-246 1483.16,-270.25 1533.8,-300.1 1567.97,-320.64"/>
<polygon fill="black" stroke="black" points="1566.35,-323.75 1576.72,-325.91 1569.97,-317.75 1566.35,-323.75"/>
<text text-anchor="middle" x="1498" y="-299" font-family="Helvetica,sans-Serif" font-size="10.00">connects via</text>
</g>
<!-- monitor -->
<g id="node12" class="node">
<title>monitor</title>
<g id="a_node12"><a xlink:href="html/monitor.html" xlink:title="Azure Monitor" target="_top">
<path fill="none" stroke="black" d="M605.5,-388C605.5,-388 525.5,-388 525.5,-388 519.5,-388 513.5,-382 513.5,-376 513.5,-376 513.5,-362 513.5,-362 513.5,-356 519.5,-350 525.5,-350 525.5,-350 605.5,-350 605.5,-350 611.5,-350 617.5,-356 617.5,-362 617.5,-362 617.5,-376 617.5,-376 617.5,-382 611.5,-388 605.5,-388"/>
<text text-anchor="middle" x="565.5" y="-366.2" font-family="Helvetica,sans-Serif" font-size="11.00">Azure Monitor</text>
</a>
</g>
</g>
<!-- monitor&#45;&gt;resource&#45;group -->
<g id="edge16" class="edge">
<title>monitor&#45;&gt;resource&#45;group</title>
<path fill="none" stroke="black" d="M617.82,-350.5C632.06,-345.58 647.57,-340.41 662,-336 797.61,-294.59 958.58,-253.72 1046.86,-232"/>
<polygon fill="black" stroke="black" points="1047.86,-235.36 1056.73,-229.57 1046.19,-228.56 1047.86,-235.36"/>
<text text-anchor="middle" x="872" y="-301" font-family="Helvetica,sans-Serif" font-size="10.00">observes</text>
</g>
<!-- on&#45;prem -->
<g id="node15" class="node">
<title>on&#45;prem</title>
<g id="a_node15"><a xlink:href="html/on-prem.html" xlink:title="On&#45;premises Environment" target="_top">
<path fill="none" stroke="black" d="M945,-444C945,-444 799,-444 799,-444 793,-444 787,-438 787,-432 787,-432 787,-418 787,-418 787,-412 793,-406 799,-406 799,-406 945,-406 945,-406 951,-406 957,-412 957,-418 957,-418 957,-432 957,-432 957,-438 951,-444 945,-444"/>
<text text-anchor="middle" x="872" y="-422.2" font-family="Helvetica,sans-Serif" font-size="11.00">On&#45;premises Environment</text>
</a>
</g>
</g>
<!-- monitor&#45;&gt;on&#45;prem -->
<g id="edge17" class="edge">
<title>monitor&#45;&gt;on&#45;prem</title>
<path fill="none" stroke="black" d="M617.81,-378.44C661.2,-386.42 724.5,-398.06 776.95,-407.7"/>
<polygon fill="black" stroke="black" points="776.48,-411.18 786.95,-409.54 777.74,-404.29 776.48,-411.18"/>
<text text-anchor="middle" x="710" y="-406" font-family="Helvetica,sans-Serif" font-size="10.00">observes</text>
</g>
<!-- defender -->
<g id="node13" class="node">
<title>defender</title>
<g id="a_node13"><a xlink:href="html/defender.html" xlink:title="Defender for Cloud" target="_top">
<path fill="none" stroke="black" d="M618.5,-314C618.5,-314 512.5,-314 512.5,-314 506.5,-314 500.5,-308 500.5,-302 500.5,-302 500.5,-288 500.5,-288 500.5,-282 506.5,-276 512.5,-276 512.5,-276 618.5,-276 618.5,-276 624.5,-276 630.5,-282 630.5,-288 630.5,-288 630.5,-302 630.5,-302 630.5,-308 624.5,-314 618.5,-314"/>
<text text-anchor="middle" x="565.5" y="-292.2" font-family="Helvetica,sans-Serif" font-size="11.00">Defender for Cloud</text>
</a>
</g>
</g>
<!-- defender&#45;&gt;subscription -->
<g id="edge18" class="edge">
<title>defender&#45;&gt;subscription</title>
<path fill="none" stroke="black" d="M630.7,-278.34C685.29,-264.18 762.88,-244.05 814.99,-230.53"/>
<polygon fill="black" stroke="black" points="815.93,-233.9 824.73,-228 814.17,-227.13 815.93,-233.9"/>
<text text-anchor="middle" x="710" y="-272" font-family="Helvetica,sans-Serif" font-size="10.00">assesses</text>
</g>
<!-- defender&#45;&gt;on&#45;prem -->
<g id="edge19" class="edge">
<title>defender&#45;&gt;on&#45;prem</title>
<path fill="none" stroke="black" d="M616.01,-314.03C654.87,-329.17 710.19,-351.2 758,-372 779.35,-381.29 802.7,-392.12 822.59,-401.57"/>
<polygon fill="black" stroke="black" points="821.23,-404.79 831.76,-405.93 824.24,-398.47 821.23,-404.79"/>
<text text-anchor="middle" x="710" y="-375" font-family="Helvetica,sans-Serif" font-size="10.00">protects</text>
</g>
<!-- arc -->
<g id="node14" class="node">
<title>arc</title>
<g id="a_node14"><a xlink:href="html/arc.html" xlink:title="Azure Arc" target="_top">
<path fill="none" stroke="black" d="M325.5,-388C325.5,-388 269.5,-388 269.5,-388 263.5,-388 257.5,-382 257.5,-376 257.5,-376 257.5,-362 257.5,-362 257.5,-356 263.5,-350 269.5,-350 269.5,-350 325.5,-350 325.5,-350 331.5,-350 337.5,-356 337.5,-362 337.5,-362 337.5,-376 337.5,-376 337.5,-382 331.5,-388 325.5,-388"/>
<text text-anchor="middle" x="297.5" y="-366.2" font-family="Helvetica,sans-Serif" font-size="11.00">Azure Arc</text>
</a>
</g>
</g>
<!-- arc&#45;&gt;monitor -->
<g id="edge21" class="edge">
<title>arc&#45;&gt;monitor</title>
<path fill="none" stroke="black" d="M337.75,-369C381.28,-369 452.09,-369 503,-369"/>
<polygon fill="black" stroke="black" points="503.22,-372.5 513.22,-369 503.22,-365.5 503.22,-372.5"/>
<text text-anchor="middle" x="421" y="-372" font-family="Helvetica,sans-Serif" font-size="10.00">integrates with</text>
</g>
<!-- arc&#45;&gt;defender -->
<g id="edge22" class="edge">
<title>arc&#45;&gt;defender</title>
<path fill="none" stroke="black" d="M337.75,-358.08C377.85,-346.92 441.09,-329.33 490.61,-315.56"/>
<polygon fill="black" stroke="black" points="491.62,-318.91 500.32,-312.85 489.75,-312.16 491.62,-318.91"/>
<text text-anchor="middle" x="421" y="-350" font-family="Helvetica,sans-Serif" font-size="10.00">integrates with</text>
</g>
<!-- arc&#45;&gt;on&#45;prem -->
<g id="edge20" class="edge">
<title>arc&#45;&gt;on&#45;prem</title>
<path fill="none" stroke="black" d="M337.72,-380.53C349.03,-383.58 361.45,-386.67 373,-389 499.79,-414.53 532.88,-415.71 662,-423 699.34,-425.11 740.5,-425.84 776.34,-425.97"/>
<polygon fill="black" stroke="black" points="776.78,-429.47 786.79,-425.99 776.8,-422.47 776.78,-429.47"/>
<text text-anchor="middle" x="565.5" y="-424" font-family="Helvetica,sans-Serif" font-size="10.00">extends governance to</text>
</g>
<!-- on&#45;prem&#45;&gt;vpn&#45;gateway -->
<g id="edge14" class="edge">
<title>on&#45;prem&#45;&gt;vpn&#45;gateway</title>
<path fill="none" stroke="black" d="M957.31,-425.46C1107.29,-426.28 1416.91,-427.96 1547.64,-428.67"/>
<polygon fill="black" stroke="black" points="1547.85,-432.17 1557.86,-428.73 1547.88,-425.17 1547.85,-432.17"/>
<text text-anchor="middle" x="1228.5" y="-430" font-family="Helvetica,sans-Serif" font-size="10.00">connects to</text>
</g>
<!-- on&#45;prem&#45;&gt;expressroute -->
<g id="edge15" class="edge">
<title>on&#45;prem&#45;&gt;expressroute</title>
<path fill="none" stroke="black" d="M957.31,-415.82C1107.29,-399.5 1416.91,-365.8 1547.64,-351.57"/>
<polygon fill="black" stroke="black" points="1548.3,-355.02 1557.86,-350.46 1547.54,-348.06 1548.3,-355.02"/>
<text text-anchor="middle" x="1228.5" y="-391" font-family="Helvetica,sans-Serif" font-size="10.00">connects to</text>
</g>
</g>
</svg>
